<svg width="317" height="317" viewBox="0 0 317 317" fill="none" xmlns="http://www.w3.org/2000/svg">
<path d="M280.888 277.349H36.0984C31.3796 277.349 27.0192 274.831 24.6599 270.744C22.3005 266.658 22.3005 261.623 24.66 257.536L147.048 46.2028C149.41 42.1229 153.766 39.6106 158.48 39.6106C163.194 39.6106 167.551 42.1229 169.912 46.2028L292.3 257.536C294.659 261.621 294.66 266.653 292.304 270.739C289.948 274.824 285.592 277.344 280.875 277.349H280.888ZM158.5 79.2236L59.028 250.932H257.998L158.5 79.2236ZM171.642 198.112H145.226V132.057H171.642V198.112Z" fill="#B00020"/>
<path d="M145.292 211.333H171.708V237.75H145.292V211.333Z" fill="#B00020"/>
</svg>
