<svg width="496" height="512" viewBox="0 0 496 512" fill="none" xmlns="http://www.w3.org/2000/svg">
<path d="M248 8C111 8 0 119 0 256C0 393 111 504 248 504C385 504 496 393 496 256C496 119 385 8 248 8ZM248 456C137.7 456 48 366.3 48 256C48 145.7 137.7 56 248 56C358.3 56 448 145.7 448 256C448 366.3 358.3 456 248 456ZM256 304C242.8 304 232 314.8 232 328C232 341.2 242.8 352 256 352C279.8 352 302.3 362.5 317.6 380.8C325.7 390.6 340.8 392.7 351.4 383.9C361.6 375.4 363 360.3 354.5 350.1C330 320.8 294.1 304 256 304ZM168 240C185.7 240 200 225.7 200 208C200 190.3 185.7 176 168 176C150.3 176 136 190.3 136 208C136 225.7 150.3 240 168 240ZM328 176C310.3 176 296 190.3 296 208C296 225.7 310.3 240 328 240C345.7 240 360 225.7 360 208C360 190.3 345.7 176 328 176ZM162.4 274.8C151 290.1 126 325.4 126 342.9C126 365.6 144.8 384 168 384C191.2 384 210 365.6 210 342.9C210 325.4 185 290.1 173.6 274.8C170.8 271.1 165.2 271.1 162.4 274.8V274.8Z" fill="#005DDE"/>
</svg>
