<svg width="281" height="45" viewBox="0 0 281 45" fill="none" xmlns="http://www.w3.org/2000/svg">
<path d="M251.445 30.45C252.12 31.0015 252.985 31.2626 253.852 31.1759L255.767 30.9838C256.634 30.8967 257.431 30.4688 257.982 29.7944L271.823 12.8674L280.069 19.61L278.102 0L258.492 1.9669L266.738 8.7095L254.115 24.1477L243.326 15.3261C242.652 14.7746 241.786 14.5135 240.919 14.6003L239.004 14.7924C238.137 14.8795 237.341 15.3073 236.79 15.9818L217.067 40.1011L222.152 44.2589L240.657 21.6285L251.445 30.45Z" fill="url(#paint0_linear_1024_3398)"/>
<path d="M23.6 36.3231H10.2V33.8031H23.6V36.3231ZM23.6 28.9231H10.2V25.5631H3.8V41.4031H30.04V25.5631H23.6V28.9231ZM29.4 18.5631C30.2 14.6031 30.2 11.7231 30.2 8.76312V5.64312H4.08V10.7231H23.8C23.76 13.0031 23.64 15.4831 23 18.5631H0V23.6431H33.96V18.5631H29.4ZM67.0369 13.9231H47.2369V10.0831H66.8769V5.00312H40.7969V18.9631H67.0369V13.9231ZM53.6369 37.0031C49.1169 37.0031 47.0769 36.4431 47.0769 34.8831C47.0769 33.3231 49.1169 32.7231 53.6769 32.7231C58.1969 32.7231 60.2369 33.3231 60.2369 34.8831C60.2369 36.4431 58.1969 37.0031 53.6369 37.0031ZM53.6369 27.8431C45.5169 27.8431 40.5169 30.4031 40.5169 34.8831C40.5169 39.3231 45.5169 41.8831 53.6769 41.8831C61.7969 41.8831 66.7969 39.3231 66.7969 34.8831C66.7969 30.4031 61.7969 27.8431 53.6369 27.8431ZM36.7969 21.0431V26.2431H70.8369V21.0431H36.7969ZM77.3538 23.0031C84.1538 22.1631 88.3938 19.6031 90.5938 16.0831C92.7938 19.6031 97.0738 22.1631 103.874 23.0031L106.194 17.9631C98.3538 17.0831 95.2738 13.9231 94.5938 11.0031H104.554V5.96312H76.5138V11.0031H86.6338C85.9538 13.9231 82.8738 17.0831 75.0338 17.9631L77.3538 23.0031ZM107.594 24.6031H73.5938V29.6831H87.1938V41.8431H93.6738V29.6831H107.594V24.6031ZM125.771 13.7631C125.771 11.5231 127.411 10.3231 129.691 10.3231C132.011 10.3231 133.651 11.5231 133.651 13.7631C133.651 16.0831 132.011 17.2831 129.691 17.2831C127.411 17.2831 125.771 16.0831 125.771 13.7631ZM139.891 13.7631C139.891 8.80312 135.531 5.20312 129.691 5.20312C123.931 5.20312 119.531 8.80312 119.531 13.7631C119.531 18.8031 123.931 22.4031 129.691 22.4031C135.531 22.4031 139.891 18.8031 139.891 13.7631ZM130.411 35.0031H149.291V24.1231H123.971V29.0431H142.891V30.4031H124.011V41.4031H150.251V36.4431H130.411V35.0031ZM149.291 10.9631V4.24312H142.811V22.8031H149.291V16.1631H153.931V10.9631H149.291ZM164.848 22.3631H176.128V7.24312H158.208V12.3231H169.528V17.3231H158.248V33.3231H161.688C168.728 33.3231 174.208 33.1231 179.888 32.0831L179.248 26.8831C174.568 27.7231 170.208 28.0031 164.848 28.0831V22.3631ZM181.328 4.20312V41.9231H187.808V4.20312H181.328ZM194.805 7.44312V33.1231H213.245V7.44312H194.805ZM206.885 12.4831V28.0831H201.165V12.4831H206.885ZM218.005 4.20312V41.9231H224.485V4.20312H218.005Z" fill="url(#paint1_linear_1024_3398)"/>
<defs>
<linearGradient id="paint0_linear_1024_3398" x1="245.898" y1="3.2301" x2="249.735" y2="41.4924" gradientUnits="userSpaceOnUse">
<stop stop-color="#37A0EA"/>
<stop offset="1" stop-color="#004A86" stop-opacity="0"/>
</linearGradient>
<linearGradient id="paint1_linear_1024_3398" x1="-1.44" y1="4.00312" x2="227.06" y2="43.5031" gradientUnits="userSpaceOnUse">
<stop stop-color="#37A0EA"/>
<stop offset="1" stop-color="#004A86"/>
</linearGradient>
</defs>
</svg>
