<svg width="116" height="145" viewBox="0 0 116 145" fill="none" xmlns="http://www.w3.org/2000/svg">
<path d="M58 145C49.9963 144.961 43.5067 138.503 43.4275 130.5H72.4275C72.4428 132.438 72.0732 134.361 71.34 136.155C69.438 140.519 65.5531 143.703 60.9 144.71H60.8638H60.755H60.6245H60.5592C59.7169 144.885 58.8602 144.982 58 145ZM116 123.25H0V108.75L14.5 101.5V61.625C14.118 51.3961 16.428 41.2462 21.199 32.19C25.948 23.791 34.0655 17.8269 43.5 15.805V0H72.5V15.805C91.1977 20.2565 101.5 36.5255 101.5 61.625V101.5L116 108.75V123.25Z" fill="#262626"/>
</svg>
