<svg width="214" height="214" viewBox="0 0 214 214" fill="none" xmlns="http://www.w3.org/2000/svg">
<path d="M107 167C100.376 166.968 95.0055 161.623 94.94 155H118.94C118.953 156.604 118.647 158.195 118.04 159.68C116.466 163.292 113.251 165.927 109.4 166.76H109.37H109.28H109.172H109.118C108.421 166.905 107.712 166.985 107 167ZM155 149H59V137L71 131V98C70.6839 89.5347 72.5956 81.1348 76.544 73.64C80.4742 66.6891 87.1922 61.7533 95 60.08V47H119V60.08C134.474 63.764 143 77.228 143 98V131L155 137V149Z" fill="white"/>
</svg>
