<svg width="126" height="158" viewBox="0 0 126 158" fill="none" xmlns="http://www.w3.org/2000/svg">
<path d="M63 157.5C54.3064 157.457 47.2572 150.443 47.1713 141.75H78.6712C78.6879 143.855 78.2864 145.943 77.49 147.893C75.424 152.633 71.2043 156.091 66.15 157.185H66.1106H65.9925H65.8508H65.7799C64.8649 157.376 63.9344 157.481 63 157.5ZM126 133.875H0V118.125L15.75 110.25V66.9375C15.3351 55.8268 17.8442 44.8019 23.0265 34.965C28.1849 25.8419 37.0022 19.3637 47.25 17.1675V0H78.75V17.1675C99.0596 22.0028 110.25 39.6743 110.25 66.9375V110.25L126 118.125V133.875Z" fill="white"/>
</svg>
