<svg width="214" height="214" viewBox="0 0 214 214" fill="none" xmlns="http://www.w3.org/2000/svg">
<rect width="214" height="214" fill="white"/>
<path d="M106.97 59.4444C82.2487 59.4105 61.6241 78.3238 59.5218 102.956C57.4195 127.588 74.5408 149.723 98.9106 153.879C123.28 158.035 146.77 142.825 152.951 118.889H140.58C134.533 135.992 116.612 145.832 98.9362 141.754C81.26 137.676 69.4603 120.981 71.5165 102.957C73.5728 84.9336 88.8299 71.3247 106.97 71.3333C116.419 71.3471 125.466 75.1602 132.074 81.9144L112.944 101.055H154.556V59.4444L140.58 73.4139C131.686 64.4652 119.587 59.4368 106.97 59.4444Z" fill="url(#paint0_linear_1026_3357)"/>
<defs>
<linearGradient id="paint0_linear_1026_3357" x1="59.6259" y1="59.6262" x2="154.374" y2="154.374" gradientUnits="userSpaceOnUse">
<stop stop-color="#359CE6"/>
<stop offset="1" stop-color="#034E8A"/>
</linearGradient>
</defs>
</svg>
