<svg width="329" height="329" viewBox="0 0 329 329" fill="none" xmlns="http://www.w3.org/2000/svg">
<path d="M54.8333 260.458H27.4167C27.4167 215.033 64.2413 178.208 109.667 178.208C155.092 178.208 191.917 215.033 191.917 260.458H164.5C164.5 230.175 139.95 205.625 109.667 205.625C79.3831 205.625 54.8333 230.175 54.8333 260.458ZM278.197 215.303L246.75 183.87L215.317 215.303L195.933 195.919L227.353 164.5L195.933 133.067L215.317 113.683L246.75 145.116L278.183 113.683L297.567 133.067L266.134 164.5L297.567 195.933L278.197 215.303ZM109.667 164.5C79.3831 164.5 54.8333 139.95 54.8333 109.667C54.8333 79.383 79.3831 54.8333 109.667 54.8333C139.95 54.8333 164.5 79.383 164.5 109.667C164.462 139.935 139.935 164.462 109.667 164.5ZM109.667 82.2499C94.6889 82.2651 82.4952 94.2975 82.2806 109.274C82.066 124.25 93.9098 136.627 108.881 137.071C123.852 137.516 136.409 125.863 137.083 110.9V116.384V109.667C137.083 94.5248 124.808 82.2499 109.667 82.2499Z" fill="url(#paint0_linear_1041_3373)"/>
<defs>
<linearGradient id="paint0_linear_1041_3373" x1="25.6837" y1="53.743" x2="308.471" y2="64.5345" gradientUnits="userSpaceOnUse">
<stop stop-color="#37A0EA"/>
<stop offset="1" stop-color="#004A86"/>
</linearGradient>
</defs>
</svg>
